<svg xmlns="http://www.w3.org/2000/svg" width="58" height="58" viewBox="0 0 58 58">
<path d="M20.953,0.5L0,23.967l11.754,29.304L43.065,57.5c0,0,14.91-38.186,14.935-39.109C58.025,17.467,20.953,0.5,20.953,0.5z
	 M40.82,39.288l-1.792,1.795c-0.32,0.319-1.257,0.52-1.287,0.52c-5.67,0.049-11.129-2.18-15.14-6.196
	c-4.022-4.029-6.251-9.514-6.191-15.208c0-0.004,0.205-0.914,0.524-1.231l1.793-1.795c0.656-0.659,1.915-0.957,2.797-0.662
	l0.378,0.126c0.88,0.295,1.803,1.268,2.046,2.166l0.902,3.313c0.243,0.9-0.085,2.179-0.741,2.836l-1.196,1.198
	c1.175,4.355,4.587,7.771,8.937,8.95l1.197-1.198c0.658-0.659,1.937-0.987,2.833-0.744l3.309,0.905
	c0.896,0.246,1.869,1.166,2.164,2.046l0.126,0.382C41.771,37.373,41.476,38.635,40.82,39.288z"/>
</svg>