<svg xmlns="http://www.w3.org/2000/svg" width="200" height="70" viewBox="0 0 200 70">
<path style="fill:#FFFFFF;" d="M57.718,62.856c-4.92,0-8.937-0.752-12.187-3.536l5.055-4.212c1.67,1.392,4.604,1.881,7.178,1.881
	c3.114,0,4.604-0.865,4.604-2.407c0-0.64-0.181-1.166-0.633-1.58c-0.406-0.339-1.083-0.602-2.121-0.714l-3.882-0.452
	c-2.844-0.338-5.01-1.128-6.454-2.369c-1.49-1.279-2.212-3.084-2.212-5.379c0-4.889,4.424-8.462,11.736-8.462
	c4.604,0,8.08,0.903,10.833,3.197l-4.964,4.138c-2.032-1.693-4.695-1.581-6.094-1.581c-2.753,0-3.882,1.317-3.882,2.483
	c0,0.339,0.135,0.828,0.632,1.242c0.406,0.338,1.084,0.677,2.212,0.79l3.882,0.451c2.889,0.339,4.964,1.091,6.319,2.219
	c1.715,1.391,2.393,3.385,2.393,5.867C70.132,59.884,64.49,62.856,57.718,62.856z"/>
<path style="fill:#FFFFFF;" d="M84.667,53.077h-4.83v9.553h-7.899V35.85h12.729c7.132,0,10.969,4.212,10.969,8.613
	C95.635,48.863,91.798,53.077,84.667,53.077z M84.305,41.755h-4.468v5.416h4.468c2.166,0,3.431-1.316,3.431-2.708
	C87.736,43.071,86.472,41.755,84.305,41.755z"/>
<path style="fill:#FFFFFF;" d="M118.16,59.846c-2.348,1.956-5.056,3.009-8.983,3.009c-3.927,0-6.635-1.053-8.983-3.009
	c-3.385-2.82-3.25-6.582-3.25-10.606s-0.135-7.786,3.25-10.606c2.348-1.956,5.056-3.009,8.983-3.009
	c3.927,0,6.635,1.053,8.983,3.009c3.385,2.82,3.25,6.582,3.25,10.606S121.545,57.026,118.16,59.846z M112.337,42.658
	c-0.587-0.64-1.715-1.166-3.159-1.166c-1.444,0-2.573,0.527-3.159,1.166c-0.722,0.79-1.175,1.692-1.175,6.582
	s0.452,5.755,1.175,6.545c0.587,0.639,1.715,1.203,3.159,1.203c1.444,0,2.573-0.564,3.159-1.203c0.722-0.79,1.175-1.655,1.175-6.545
	S113.059,43.448,112.337,42.658z"/>
<path style="fill:#FFFFFF;" d="M139.738,62.63l-5.687-9.968h-2.663v9.968h-7.899V35.85h12.729c7.132,0,10.969,4.212,10.969,8.613
	c0,3.648-2.708,5.943-5.236,6.996l6.951,11.171H139.738z M135.857,41.755h-4.468v5.416h4.468c2.166,0,3.431-1.316,3.431-2.708
	C139.287,43.071,138.023,41.755,135.857,41.755z"/>
<path style="fill:#FFFFFF;" d="M164.565,41.717V62.63h-7.899V41.717h-7.899V35.85h23.698v5.867H164.565z"/>
<path style="fill:#FFFFFF;" d="M190.295,51.723V62.63h-7.899V51.723l-9.704-15.873h8.622l5.055,9.629l5.01-9.629H200L190.295,51.723
	z"/>
<linearGradient id="SVGID_1_" gradientUnits="userSpaceOnUse" x1="6.1541" y1="67.8709" x2="7.4114" y2="57.2471">
	<stop  offset="0" style="stop-color:#F86C6E"/>
	<stop  offset="0.47" style="stop-color:#D84041"/>
	<stop  offset="1" style="stop-color:#B60000"/>
</linearGradient>
<path style="fill:url(#SVGID_1_);" d="M0.247,47.312C-2.165,60.947,13.98,61.639,11.169,70c1.341-0.692,1.989-1.038,3.034-2.329
	C18.132,61.062,0.247,47.312,0.247,47.312z"/>
<linearGradient id="SVGID_2_" gradientUnits="userSpaceOnUse" x1="22.8348" y1="54.2474" x2="10.6662" y2="28.6076">
	<stop  offset="0" style="stop-color:#F86C6E"/>
	<stop  offset="0.47" style="stop-color:#D84041"/>
	<stop  offset="1" style="stop-color:#B60000"/>
</linearGradient>
<path style="fill:url(#SVGID_2_);" d="M20.118,58.768c-1.036-10.151-9.05-12.644-12.528-17.946
	c-2.394-6.123,0.297-8.006,8.679-19.106C4.65,40.026,24.184,45.343,20.118,58.768z"/>
<linearGradient id="SVGID_3_" gradientUnits="userSpaceOnUse" x1="4.7448" y1="36.2194" x2="17.4798" y2="5.7086">
	<stop  offset="0" style="stop-color:#F86C6E"/>
	<stop  offset="0.47" style="stop-color:#D84041"/>
	<stop  offset="1" style="stop-color:#B60000"/>
</linearGradient>
<path style="fill:url(#SVGID_3_);" d="M13.561,0C16.574,16.171-7.288,20.322,7.59,40.822c-2.202-6.893,4.054-11.579,8.328-17.805
	C20.015,17.048,23.314,10.412,13.561,0z"/>
<linearGradient id="SVGID_4_" gradientUnits="userSpaceOnUse" x1="-6970.3667" y1="65.257" x2="-6975.6704" y2="48.2482" gradientTransform="matrix(-1 0 0 1 -6949.0527 0)">
	<stop  offset="0" style="stop-color:#F86C6E"/>
	<stop  offset="0.47" style="stop-color:#D84041"/>
	<stop  offset="1" style="stop-color:#B60000"/>
</linearGradient>
<path style="fill:url(#SVGID_4_);" d="M20.118,66.855c3.466-1.155,7.221-4.14,9.222-6.941c3.294-5.831-0.557-10.067-7.785-16.624
	C25.744,51.291,26.472,59.153,20.118,66.855z"/>
<linearGradient id="SVGID_5_" gradientUnits="userSpaceOnUse" x1="-6980.8486" y1="55.7002" x2="-6968.9575" y2="27.2109" gradientTransform="matrix(-1 0 0 1 -6949.0527 0)">
	<stop  offset="0" style="stop-color:#F86C6E"/>
	<stop  offset="0.47" style="stop-color:#D84041"/>
	<stop  offset="1" style="stop-color:#B60000"/>
</linearGradient>
<path style="fill:url(#SVGID_5_);" d="M22.941,22.14c-2.555,13.711,19.127,18.335,6.398,37.774
	c2.652-5.831-4.162-11.346-7.785-16.624C18.08,38.229,14.672,30.969,22.941,22.14z"/>
<linearGradient id="SVGID_6_" gradientUnits="userSpaceOnUse" x1="-6962.4595" y1="65.3932" x2="-6952.7256" y2="42.0736" gradientTransform="matrix(-1 0 0 1 -6949.0527 0)">
	<stop  offset="0" style="stop-color:#F86C6E"/>
	<stop  offset="0.47" style="stop-color:#D84041"/>
	<stop  offset="1" style="stop-color:#B60000"/>
</linearGradient>
<path style="fill:url(#SVGID_6_);" d="M3.082,39.208C3.947,50.279,24.36,54.143,14.204,67.671c1.161-3.898-4.721-7.185-8.008-10.126
	C3.138,54.809-2.8,49.933,3.082,39.208z"/>
<linearGradient id="SVGID_7_" gradientUnits="userSpaceOnUse" x1="6.9949" y1="20.4109" x2="20.3629" y2="20.4109">
	<stop  offset="0" style="stop-color:#B60000"/>
	<stop  offset="0.53" style="stop-color:#D84041"/>
	<stop  offset="1" style="stop-color:#F86C6E"/>
</linearGradient>
<path style="fill:url(#SVGID_7_);" d="M7.59,40.822c-0.17-0.452-0.309-0.919-0.411-1.395c-0.098-0.477-0.159-0.964-0.177-1.454
	c-0.039-0.982,0.107-1.971,0.381-2.919c0.565-1.901,1.613-3.603,2.744-5.182c1.13-1.59,2.379-3.069,3.546-4.595
	c0.585-0.762,1.165-1.522,1.706-2.307c0.542-0.788,1.071-1.589,1.558-2.404c0.988-1.621,1.817-3.336,2.246-5.153
	c0.219-0.906,0.335-1.834,0.334-2.766c-0.004-0.931-0.115-1.864-0.326-2.779c-0.428-1.831-1.232-3.579-2.224-5.213
	C15.981,3.013,14.801,1.483,13.561,0c1.397,1.337,2.686,2.798,3.803,4.398c1.104,1.604,2.037,3.365,2.556,5.286
	c0.539,1.912,0.583,3.98,0.152,5.932c-0.433,1.958-1.307,3.769-2.311,5.447c-0.51,0.838-1.053,1.646-1.611,2.445
	c-0.565,0.799-1.152,1.577-1.763,2.332c-1.222,1.51-2.481,2.971-3.66,4.479c-0.587,0.756-1.14,1.533-1.642,2.339
	C8.584,33.464,8.149,34.31,7.829,35.2c-0.326,0.887-0.521,1.823-0.563,2.774C7.226,38.925,7.343,39.887,7.59,40.822z"/>
<linearGradient id="SVGID_8_" gradientUnits="userSpaceOnUse" x1="19.8493" y1="28.0061" x2="32.4292" y2="63.8202">
	<stop  offset="0" style="stop-color:#F86C6E"/>
	<stop  offset="0.47" style="stop-color:#D84041"/>
	<stop  offset="1" style="stop-color:#B60000"/>
</linearGradient>
<path style="fill:url(#SVGID_8_);" d="M29.34,59.914c0.324-0.831,0.486-1.714,0.464-2.587c-0.022-0.874-0.215-1.732-0.528-2.543
	c-0.306-0.814-0.717-1.588-1.183-2.329c-0.467-0.74-0.976-1.457-1.517-2.153c-1.086-1.39-2.245-2.734-3.389-4.108
	c-0.571-0.688-1.126-1.396-1.659-2.125c-0.531-0.736-1.028-1.481-1.5-2.257c-0.925-1.554-1.717-3.219-2.183-4.998
	c-0.457-1.775-0.587-3.658-0.267-5.468c0.156-0.904,0.401-1.789,0.737-2.635c0.337-0.846,0.748-1.657,1.218-2.427
	c0.951-1.536,2.115-2.916,3.409-4.143c-1.138,1.372-2.185,2.815-2.998,4.377c-0.821,1.553-1.402,3.225-1.623,4.939
	c-0.108,0.857-0.126,1.722-0.06,2.58c0.068,0.858,0.228,1.708,0.463,2.538c0.464,1.664,1.22,3.246,2.128,4.74
	c0.447,0.749,0.933,1.491,1.438,2.203c0.508,0.714,1.056,1.407,1.603,2.104c1.094,1.395,2.247,2.763,3.284,4.234
	c1.037,1.463,2.002,3.028,2.544,4.777c0.261,0.872,0.407,1.79,0.348,2.699c-0.03,0.454-0.104,0.903-0.227,1.336
	C29.717,59.102,29.545,59.519,29.34,59.914z"/>
<linearGradient id="SVGID_9_" gradientUnits="userSpaceOnUse" x1="0.2338" y1="53.4391" x2="14.4201" y2="53.4391">
	<stop  offset="0" style="stop-color:#F86C6E"/>
	<stop  offset="0.47" style="stop-color:#D84041"/>
	<stop  offset="1" style="stop-color:#B60000"/>
</linearGradient>
<path style="fill:url(#SVGID_9_);" d="M14.204,67.671c0.165-0.699,0.104-1.424-0.135-2.076c-0.238-0.654-0.622-1.245-1.068-1.781
	c-0.444-0.539-0.946-1.033-1.473-1.5c-0.528-0.466-1.074-0.915-1.635-1.349c-1.124-0.867-2.274-1.71-3.398-2.621
	c-0.281-0.226-0.557-0.472-0.821-0.706c-0.268-0.236-0.537-0.475-0.804-0.718c-0.534-0.487-1.056-0.995-1.547-1.539
	c-0.972-1.093-1.816-2.337-2.362-3.72c-0.54-1.383-0.788-2.88-0.714-4.348c0.059-1.471,0.404-2.904,0.901-4.259
	c0.508-1.353,1.164-2.639,1.934-3.846c-0.601,1.298-1.146,2.618-1.531,3.979c-0.393,1.356-0.631,2.751-0.63,4.139
	c0.004,0.694,0.07,1.384,0.198,2.059c0.131,0.675,0.332,1.335,0.6,1.967c0.527,1.269,1.313,2.422,2.248,3.452
	c0.461,0.521,0.959,1.014,1.475,1.494c0.517,0.477,1.053,0.962,1.579,1.42c1.065,0.924,2.209,1.785,3.297,2.725
	c1.091,0.933,2.164,1.924,3.019,3.114c0.416,0.598,0.779,1.252,0.96,1.968c0.09,0.356,0.135,0.724,0.12,1.088
	C14.401,66.977,14.326,67.335,14.204,67.671z"/>
</svg>
