<svg version="1.1" xmlns="http://www.w3.org/2000/svg"  width="390" height="145" viewBox="0 0 390 145" >
<path style="fill:#C7D30C;" d="M27.935,91.342l13.521,12.093l30.217-12.093H27.935z M93.619,82.56l0.136-0.086l-0.125-0.001
	L93.619,82.56z M-0.325,66.068l23.119,20.676L63.02,24.511l-0.105-0.21L19.953,24.01L-0.325,66.068z M37.499,82.095l0.105,0.21
	l56.027,0.167l7.528-55.838l-22.3-8.531L37.499,82.095z M31.528,0l-7.224,14.983l47.008,0.235L31.528,0z"/>
<path style="fill:#283C46;" d="M132.963,144.178l-0.022-0.044l9.028-13.961l-0.023-0.043h-8.433v-1.893h12.11l0.022,0.043
	l-9.027,13.961l0.022,0.044h8.829v1.893H132.963z"/>
<path style="fill:#283C46;" d="M150.037,128.236h9.204v1.893h-7.112v4.844h6.231v1.827h-6.231v5.484h7.31v1.893h-9.402V128.236z"/>
<path style="fill:#283C46;" d="M164.467,128.236h2.092v15.941h-2.092V128.236z"/>
<path style="fill:#283C46;" d="M176.01,130.13h-5.351v-1.893h12.792v1.893h-5.351v14.048h-2.091V130.13z"/>
<path style="fill:#283C46;" d="M194.76,128.236h9.425v1.893h-7.333v5.153h6.451v1.827h-6.451v7.068h-2.092V128.236z"/>
<path style="fill:#283C46;" d="M208.684,136.669v-8.433h2.09v8.212c0,1.961,0.134,3.194,0.619,4.119
	c0.549,1.034,1.694,1.915,3.787,1.915c1.936,0,3.128-0.749,3.744-1.915c0.506-0.948,0.594-2.224,0.594-4.03v-8.301h2.025v8.191
	c0,2.312-0.132,4.096-1.057,5.505c-1.011,1.541-2.929,2.488-5.395,2.488c-2.488,0-4.36-0.968-5.349-2.488
	C208.816,140.5,208.684,138.651,208.684,136.669z M212.955,123.656c0.662,0,1.21,0.55,1.21,1.21s-0.549,1.212-1.21,1.212
	s-1.21-0.551-1.21-1.212S212.294,123.656,212.955,123.656z M217.272,123.656c0.659,0,1.21,0.55,1.21,1.21s-0.551,1.212-1.21,1.212
	c-0.662,0-1.21-0.551-1.21-1.212S216.61,123.656,217.272,123.656z"/>
<path style="fill:#283C46;" d="M226.795,128.236h4.316c1.608,0,3.149,0.066,4.448,0.792c1.32,0.726,2.203,1.959,2.203,3.721
	c0,1.719-0.839,3.018-2.049,3.744c-0.573,0.352-1.167,0.551-1.826,0.66l5.107,7.025h-2.531l-4.868-6.826h-2.708v6.826h-2.092
	V128.236z M231.595,135.635c1.409,0,2.399-0.178,3.128-0.727c0.594-0.44,0.947-1.101,0.947-1.982c0-1.013-0.463-1.805-1.299-2.267
	c-0.861-0.463-1.872-0.528-3.413-0.528h-2.071v5.505H231.595z"/>
<path style="fill:#283C46;" d="M248.982,144.178l-0.024-0.044l9.028-13.961l-0.022-0.043h-8.434v-1.893h12.11l0.024,0.043
	l-9.028,13.961l0.022,0.044h8.829v1.893H248.982z"/>
<path style="fill:#283C46;" d="M265.877,136.669v-8.433h2.09v8.212c0,1.961,0.134,3.194,0.619,4.119
	c0.549,1.034,1.694,1.915,3.787,1.915c1.936,0,3.128-0.749,3.744-1.915c0.506-0.948,0.594-2.224,0.594-4.03v-8.301h2.025v8.191
	c0,2.312-0.132,4.096-1.057,5.505c-1.011,1.541-2.929,2.488-5.395,2.488c-2.488,0-4.36-0.968-5.349-2.488
	C266.009,140.5,265.877,138.651,265.877,136.669z"/>
<path style="fill:#283C46;" d="M284.009,128.236h2.092v6.715h8.676v-6.715h2.092v15.941h-2.092v-7.333h-8.676v7.333h-2.092V128.236z
	"/>
<path style="fill:#283C46;" d="M307.205,128.236h2.004l6.584,15.941h-2.246l-1.783-4.448h-7.178l-1.807,4.448h-2.135
	L307.205,128.236z M305.312,137.902h5.723l-1.299-3.303c-0.506-1.277-1.033-2.642-1.52-3.941h-0.043
	c-0.484,1.299-1.014,2.642-1.563,4.007L305.312,137.902z"/>
<path style="fill:#283C46;" d="M319.084,136.669v-8.433h2.09v8.212c0,1.961,0.134,3.194,0.619,4.119
	c0.549,1.034,1.694,1.915,3.787,1.915c1.936,0,3.128-0.749,3.744-1.915c0.506-0.948,0.594-2.224,0.594-4.03v-8.301h2.025v8.191
	c0,2.312-0.132,4.096-1.057,5.505c-1.011,1.541-2.929,2.488-5.395,2.488c-2.488,0-4.359-0.968-5.349-2.488
	C319.216,140.5,319.084,138.651,319.084,136.669z"/>
<path style="fill:#283C46;" d="M337.213,140.875c1.498,1.144,3.416,1.628,4.825,1.628c1.893,0,3.235-0.858,3.235-2.598
	c0-2.048-1.872-2.4-3.964-2.995c-2.246-0.639-4.424-1.563-4.424-4.47c0-2.818,2.047-4.448,5.153-4.448
	c1.495,0,3.303,0.375,4.577,1.19v2.201c-1.452-1.013-3.257-1.475-4.623-1.475c-1.783,0-3.039,0.771-3.039,2.4
	c0,1.982,1.85,2.312,3.789,2.863c2.31,0.66,4.602,1.585,4.602,4.623c0,2.907-2.138,4.624-5.33,4.624
	c-1.541,0-3.413-0.418-4.801-1.255V140.875z"/>
<path style="fill:#283C46;" d="M352.328,128.236h9.206v1.893h-7.113v4.844h6.231v1.827h-6.231v5.484h7.31v1.893h-9.402V128.236z"/>
<path style="fill:#C7D30C;" d="M132.434,44.676l-0.046-0.091l13.537-24.802l-0.046-0.091h-12.128v-7.904h27.027l0.046,0.091
	l-13.537,24.803l0.046,0.09h13.174v7.904H132.434z"/>
<path style="fill:#C7D30C;" d="M168.65,11.787h21.44v7.904h-12.083v4.179h10.221v7.45h-10.221v5.451h12.629v7.904H168.65V11.787z"/>
<path style="fill:#C7D30C;" d="M198.912,11.787h9.356v24.984h13.719v7.904h-23.075V11.787z"/>
<path style="fill:#C7D30C;" d="M254.93,42.813c-3.044,1.454-7.087,2.363-11.037,2.363c-11.174,0-18.627-7.178-18.627-16.763
	c0-9.767,7.77-17.125,18.444-17.125c3.862,0,7.404,0.953,10.131,2.317v9.039c-2.907-1.771-6.452-3.043-9.768-3.043
	c-5.86,0-9.448,3.861-9.448,8.812c0,4.861,3.499,8.859,9.268,8.859c0.68,0,1.498-0.091,1.998-0.227v-3.498h-4.497v-6.859h13.536
	V42.813z"/>
<path style="fill:#C7D30C;" d="M264.845,11.787h9.356v24.984h13.719v7.904h-23.075V11.787z"/>
<path style="fill:#C7D30C;" d="M295.198,11.787h9.356v32.889h-9.356V11.787z"/>
<path style="fill:#C7D30C;" d="M132.752,94.683l-0.044-0.091l18.624-28.799l-0.046-0.09h-17.398v-3.908h24.984l0.044,0.091
	l-18.624,28.799l0.046,0.091h18.215v3.906H132.752z"/>
<path style="fill:#C7D30C;" d="M181.112,61.296c9.539,0,16.716,7.404,16.716,16.943s-7.177,16.945-16.716,16.945
	c-9.539,0-16.717-7.405-16.717-16.945S171.572,61.296,181.112,61.296z M181.112,91.186c7.177,0,12.401-5.724,12.401-12.947
	c0-7.222-5.224-12.945-12.401-12.945c-7.178,0-12.402,5.723-12.402,12.945C168.71,85.461,173.934,91.186,181.112,91.186z"/>
<path style="fill:#C7D30C;" d="M207.487,61.795h19.442v3.908h-15.125v10.628h13.31v3.771h-13.31v14.582h-4.316V61.795z"/>
<path style="fill:#C7D30C;" d="M238.017,61.795h4.316v32.889h-4.316V61.795z"/>
<path style="fill:#C7D30C;" d="M255.791,94.683V61.795h4.088l13.764,18.261c1.909,2.498,3.816,5.088,5.677,7.677l0.091-0.044
	c-0.046-2.863-0.091-6.179-0.091-9.358V61.795h4.179v32.889h-4.088l-13.764-18.261c-1.907-2.498-3.814-5.088-5.677-7.677
	l-0.091,0.046c0.046,2.862,0.091,6.178,0.091,9.358v16.534H255.791z"/>
<path style="fill:#C7D30C;" d="M309.965,61.296c4.268,0,7.721,1.272,10.083,2.726v4.905c-2.633-2.18-6.266-3.633-10.174-3.633
	c-7.721,0-12.947,5.723-12.947,12.945c0,6.995,4.905,13.037,13.084,13.037c2.544,0,4.905-0.59,6.721-1.544v-7.677h-7.358v-3.771
	h11.675v13.583c-2.907,1.998-7.178,3.316-11.403,3.316c-9.719,0-17.032-7.087-17.032-16.853
	C292.613,68.654,299.742,61.296,309.965,61.296z"/>
<path style="fill:#C7D30C;" d="M332.778,61.795h18.987v3.908h-14.671v9.992h12.855v3.771h-12.855v11.312h15.079v3.906h-19.396
	V61.795z"/>
<path style="fill:#C7D30C;" d="M362.291,94.683V61.795h4.088l13.764,18.261c1.909,2.498,3.816,5.088,5.677,7.677l0.091-0.044
	c-0.046-2.863-0.091-6.179-0.091-9.358V61.795H390v32.889h-4.088l-13.764-18.261c-1.907-2.498-3.814-5.088-5.677-7.677l-0.091,0.046
	c0.046,2.862,0.091,6.178,0.091,9.358v16.534H362.291z"/>
</svg>
